{
  "accessors": [
    {
      "bufferView": 2,
      "componentType": 5126,
      "count": 65532,
      "max": [
        0.35444998741149902,
        0.13250699639320374,
        1.7477480173110962
      ],
      "min": [
        -0.26497900485992432,
        -0.77665001153945923,
        0.47754600644111633
      ],
      "type": "VEC3"
    },
    {
      "bufferView": 2,
      "byteOffset": 786384,
      "componentType": 5126,
      "count": 65532,
      "max": [
        0.99999058246612549,
        0.9999547004699707,
        0.99999129772186279
      ],
      "min": [
        -0.99999856948852539,
        -0.99998116493225098,
        -0.99993002414703369
      ],
      "type": "VEC3"
    },
    {
      "bufferView": 1,
      "componentType": 5126,
      "count": 65532,
      "max": [
        0.93673998117446899,
        0.99630999565124512
      ],
      "min": [
        0.0019499999471008778,
        0.0030700000934302807
      ],
      "type": "VEC2"
    },
    {
      "bufferView": 0,
      "componentType": 5125,
      "count": 65574,
      "max": [
        65531
      ],
      "min": [
        0
      ],
      "type": "SCALAR"
    },
    {
      "bufferView": 2,
      "byteOffset": 1572768,
      "componentType": 5126,
      "count": 65532,
      "max": [
        0.35489699244499207,
        0.13249899446964264,
        1.7474089860916138
      ],
      "min": [
        -0.26503700017929077,
        -0.77735400199890137,
        0.47930300235748291
      ],
      "type": "VEC3"
    },
    {
      "bufferView": 2,
      "byteOffset": 2359152,
      "componentType": 5126,
      "count": 65532,
      "max": [
        0.99999690055847168,
        0.999991774559021,
        0.99998378753662109
      ],
      "min": [
        -0.9999922513961792,
        -0.99995720386505127,
        -0.99997711181640625
      ],
      "type": "VEC3"
    },
    {
      "bufferView": 1,
      "byteOffset": 524256,
      "componentType": 5126,
      "count": 65532,
      "max": [
        0.9394800066947937,
        0.99421000480651855
      ],
      "min": [
        0.0026100000832229853,
        0.0042699999175965786
      ],
      "type": "VEC2"
    },
    {
      "bufferView": 0,
      "byteOffset": 262296,
      "componentType": 5125,
      "count": 65568,
      "max": [
        65531
      ],
      "min": [
        0
      ],
      "type": "SCALAR"
    },
    {
      "bufferView": 2,
      "byteOffset": 3145536,
      "componentType": 5126,
      "count": 65533,
      "max": [
        0.35476899147033691,
        0.13227300345897675,
        1.7482630014419556
      ],
      "min": [
        -0.26503700017929077,
        -0.77894502878189087,
        0.47530698776245117
      ],
      "type": "VEC3"
    },
    {
      "bufferView": 2,
      "byteOffset": 3931932,
      "componentType": 5126,
      "count": 65533,
      "max": [
        0.99997067451477051,
        0.99999427795410156,
        0.99997830390930176
      ],
      "min": [
        -0.99998176097869873,
        -1,
        -0.99990880489349365
      ],
      "type": "VEC3"
    },
    {
      "bufferView": 1,
      "byteOffset": 1048512,
      "componentType": 5126,
      "count": 65533,
      "max": [
        0.9394800066947937,
        0.99479001760482788
      ],
      "min": [
        0.0019499999471008778,
        0.0019499999471008778
      ],
      "type": "VEC2"
    },
    {
      "bufferView": 0,
      "byteOffset": 524568,
      "componentType": 5125,
      "count": 65565,
      "max": [
        65532
      ],
      "min": [
        0
      ],
      "type": "SCALAR"
    },
    {
      "bufferView": 2,
      "byteOffset": 4718328,
      "componentType": 5126,
      "count": 65533,
      "max": [
        0.35476899147033691,
        0.13257600367069244,
        1.7483429908752441
      ],
      "min": [
        -0.26489600539207458,
        -0.7787889838218689,
        0.47490599751472473
      ],
      "type": "VEC3"
    },
    {
      "bufferView": 2,
      "byteOffset": 5504724,
      "componentType": 5126,
      "count": 65533,
      "max": [
        0.99998760223388672,
        0.99993574619293213,
        0.99999332427978516
      ],
      "min": [
        -0.99997091293334961,
        -0.99954038858413696,
        -0.99994635581970215
      ],
      "type": "VEC3"
    },
    {
      "bufferView": 1,
      "byteOffset": 1572776,
      "componentType": 5126,
      "count": 65533,
      "max": [
        0.93989002704620361,
        0.99721997976303101
      ],
      "min": [
        0.0021100000012665987,
        0.0019499999471008778
      ],
      "type": "VEC2"
    },
    {
      "bufferView": 0,
      "byteOffset": 786828,
      "componentType": 5125,
      "count": 65565,
      "max": [
        65532
      ],
      "min": [
        0
      ],
      "type": "SCALAR"
    },
    {
      "bufferView": 2,
      "byteOffset": 6291120,
      "componentType": 5126,
      "count": 65533,
      "max": [
        0.35468399524688721,
        0.1326339989900589,
        1.7481060028076172
      ],
      "min": [
        -0.26503700017929077,
        -0.77912598848342896,
        0.47506999969482422
      ],
      "type": "VEC3"
    },
    {
      "bufferView": 2,
      "byteOffset": 7077516,
      "componentType": 5126,
      "count": 65533,
      "max": [
        0.99995279312133789,
        0.99999439716339111,
        0.99984627962112427
      ],
      "min": [
        -0.99998354911804199,
        -0.99999356269836426,
        -0.99997735023498535
      ],
      "type": "VEC3"
    },
    {
      "bufferView": 1,
      "byteOffset": 2097040,
      "componentType": 5126,
      "count": 65533,
      "max": [
        0.9394800066947937,
        0.99630999565124512
      ],
      "min": [
        0.0021800000686198473,
        0.0019499999471008778
      ],
      "type": "VEC2"
    },
    {
      "bufferView": 0,
      "byteOffset": 1049088,
      "componentType": 5125,
      "count": 65547,
      "max": [
        65532
      ],
      "min": [
        0
      ],
      "type": "SCALAR"
    },
    {
      "bufferView": 2,
      "byteOffset": 7863912,
      "componentType": 5126,
      "count": 65533,
      "max": [
        0.35452300310134888,
        0.1326339989900589,
        1.7483429908752441
      ],
      "min": [
        -0.26503700017929077,
        -0.77912598848342896,
        0.47548800706863403
      ],
      "type": "VEC3"
    },
    {
      "bufferView": 2,
      "byteOffset": 8650308,
      "componentType": 5126,
      "count": 65533,
      "max": [
        0.99998116493225098,
        0.99995291233062744,
        0.99984794855117798
      ],
      "min": [
        -0.99994659423828125,
        -0.99997246265411377,
        -0.99992454051971436
      ],
      "type": "VEC3"
    },
    {
      "bufferView": 1,
      "byteOffset": 2621304,
      "componentType": 5126,
      "count": 65533,
      "max": [
        0.93989002704620361,
        0.99804002046585083
      ],
      "min": [
        0.0021800000686198473,
        0.0020600000862032175
      ],
      "type": "VEC2"
    },
    {
      "bufferView": 0,
      "byteOffset": 1311276,
      "componentType": 5125,
      "count": 65553,
      "max": [
        65532
      ],
      "min": [
        0
      ],
      "type": "SCALAR"
    },
    {
      "bufferView": 2,
      "byteOffset": 9436704,
      "componentType": 5126,
      "count": 65533,
      "max": [
        0.35489699244499207,
        0.1326339989900589,
        1.7481060028076172
      ],
      "min": [
        -0.26497900485992432,
        -0.77912098169326782,
        0.47541600465774536
      ],
      "type": "VEC3"
    },
    {
      "bufferView": 2,
      "byteOffset": 10223100,
      "componentType": 5126,
      "count": 65533,
      "max": [
        0.99999475479125977,
        0.99999821186065674,
        0.99994087219238281
      ],
      "min": [
        -0.99999153614044189,
        -0.99998939037322998,
        -0.99989914894104004
      ],
      "type": "VEC3"
    },
    {
      "bufferView": 1,
      "byteOffset": 3145568,
      "componentType": 5126,
      "count": 65533,
      "max": [
        0.93737000226974487,
        0.99804002046585083
      ],
      "min": [
        0.0021800000686198473,
        0.0019499999471008778
      ],
      "type": "VEC2"
    },
    {
      "bufferView": 0,
      "byteOffset": 1573488,
      "componentType": 5125,
      "count": 65547,
      "max": [
        65532
      ],
      "min": [
        0
      ],
      "type": "SCALAR"
    },
    {
      "bufferView": 2,
      "byteOffset": 11009496,
      "componentType": 5126,
      "count": 65533,
      "max": [
        0.35489699244499207,
        0.1326339989900589,
        1.7483429908752441
      ],
      "min": [
        -0.26503700017929077,
        -0.77897000312805176,
        0.47490599751472473
      ],
      "type": "VEC3"
    },
    {
      "bufferView": 2,
      "byteOffset": 11795892,
      "componentType": 5126,
      "count": 65533,
      "max": [
        0.99996376037597656,
        0.99992144107818604,
        0.99996638298034668
      ],
      "min": [
        -0.99991416931152344,
        -0.99969190359115601,
        -0.99996352195739746
      ],
      "type": "VEC3"
    },
    {
      "bufferView": 1,
      "byteOffset": 3669832,
      "componentType": 5126,
      "count": 65533,
      "max": [
        0.9394800066947937,
        0.99536997079849243
      ],
      "min": [
        0.0026799999177455902,
        0.0020600000862032175
      ],
      "type": "VEC2"
    },
    {
      "bufferView": 0,
      "byteOffset": 1835676,
      "componentType": 5125,
      "count": 65541,
      "max": [
        65532
      ],
      "min": [
        0
      ],
      "type": "SCALAR"
    },
    {
      "bufferView": 2,
      "byteOffset": 12582288,
      "componentType": 5126,
      "count": 65533,
      "max": [
        0.35476899147033691,
        0.13250499963760376,
        1.7479389905929565
      ],
      "min": [
        -0.26493701338768005,
        -0.77912098169326782,
        0.47541600465774536
      ],
      "type": "VEC3"
    },
    {
      "bufferView": 2,
      "byteOffset": 13368684,
      "componentType": 5126,
      "count": 65533,
      "max": [
        0.9998357892036438,
        0.99997401237487793,
        0.99995458126068115
      ],
      "min": [
        -0.99983054399490356,
        -0.99999594688415527,
        -0.99988722801208496
      ],
      "type": "VEC3"
    },
    {
      "bufferView": 1,
      "byteOffset": 4194096,
      "componentType": 5126,
      "count": 65533,
      "max": [
        0.9376099705696106,
        0.99804002046585083
      ],
      "min": [
        0.0019499999471008778,
        0.0032800000626593828
      ],
      "type": "VEC2"
    },
    {
      "bufferView": 0,
      "byteOffset": 2097840,
      "componentType": 5125,
      "count": 65541,
      "max": [
        65532
      ],
      "min": [
        0
      ],
      "type": "SCALAR"
    },
    {
      "bufferView": 2,
      "byteOffset": 14155080,
      "componentType": 5126,
      "count": 24021,
      "max": [
        0.35489699244499207,
        0.13257600367069244,
        1.7481609582901001
      ],
      "min": [
        -0.26503700017929077,
        -0.77912598848342896,
        0.47490599751472473
      ],
      "type": "VEC3"
    },
    {
      "bufferView": 2,
      "byteOffset": 14443332,
      "componentType": 5126,
      "count": 24021,
      "max": [
        0.99980884790420532,
        0.99996101856231689,
        0.99995052814483643
      ],
      "min": [
        -0.99998509883880615,
        -0.99996542930603027,
        -0.99992120265960693
      ],
      "type": "VEC3"
    },
    {
      "bufferView": 1,
      "byteOffset": 4718360,
      "componentType": 5126,
      "count": 24021,
      "max": [
        0.93291997909545898,
        0.99654000997543335
      ],
      "min": [
        0.0035500000230967999,
        0.0035500000230967999
      ],
      "type": "VEC2"
    },
    {
      "bufferView": 0,
      "byteOffset": 2360004,
      "componentType": 5125,
      "count": 24021,
      "max": [
        24020
      ],
      "min": [
        0
      ],
      "type": "SCALAR"
    }
  ],
  "asset": {
    "extras": {
      "author": "resistance-studios (https://sketchfab.com/resistance-studios)",
      "license": "CC-BY-4.0 (http://creativecommons.org/licenses/by/4.0/)",
      "source": "https://sketchfab.com/3d-models/alien-fetus-adfb96fa526e4036b92006af2e9c7860",
      "title": "Alien Fetus"
    },
    "generator": "Sketchfab-9.93.0",
    "version": "2.0"
  },
  "bufferViews": [
    {
      "buffer": 0,
      "byteLength": 2456088,
      "byteOffset": 0,
      "name": "floatBufferViews",
      "target": 34963
    },
    {
      "buffer": 0,
      "byteLength": 4910528,
      "byteOffset": 2456088,
      "byteStride": 8,
      "name": "floatBufferViews",
      "target": 34962
    },
    {
      "buffer": 0,
      "byteLength": 14731584,
      "byteOffset": 7366616,
      "byteStride": 12,
      "name": "floatBufferViews",
      "target": 34962
    }
  ],
  "buffers": [
    {
      "byteLength": 22098200,
      "uri": "scene.bin"
    }
  ],
  "images": [
    {
      "uri": "textures/defaultMat_baseColor.png"
    }
  ],
  "materials": [
    {
      "doubleSided": true,
      "emissiveFactor": [
        0,
        0,
        0
      ],
      "name": "defaultMat",
      "pbrMetallicRoughness": {
        "baseColorFactor": [
          1,
          1,
          1,
          1
        ],
        "baseColorTexture": {
          "index": 0,
          "texCoord": 0
        },
        "metallicFactor": 0,
        "roughnessFactor": 0.15650845799999999
      }
    }
  ],
  "meshes": [
    {
      "primitives": [
        {
          "attributes": {
            "NORMAL": 1,
            "POSITION": 0,
            "TEXCOORD_0": 2
          },
          "indices": 3,
          "material": 0,
          "mode": 4
        }
      ]
    },
    {
      "primitives": [
        {
          "attributes": {
            "NORMAL": 5,
            "POSITION": 4,
            "TEXCOORD_0": 6
          },
          "indices": 7,
          "material": 0,
          "mode": 4
        }
      ]
    },
    {
      "primitives": [
        {
          "attributes": {
            "NORMAL": 9,
            "POSITION": 8,
            "TEXCOORD_0": 10
          },
          "indices": 11,
          "material": 0,
          "mode": 4
        }
      ]
    },
    {
      "primitives": [
        {
          "attributes": {
            "NORMAL": 13,
            "POSITION": 12,
            "TEXCOORD_0": 14
          },
          "indices": 15,
          "material": 0,
          "mode": 4
        }
      ]
    },
    {
      "primitives": [
        {
          "attributes": {
            "NORMAL": 17,
            "POSITION": 16,
            "TEXCOORD_0": 18
          },
          "indices": 19,
          "material": 0,
          "mode": 4
        }
      ]
    },
    {
      "primitives": [
        {
          "attributes": {
            "NORMAL": 21,
            "POSITION": 20,
            "TEXCOORD_0": 22
          },
          "indices": 23,
          "material": 0,
          "mode": 4
        }
      ]
    },
    {
      "primitives": [
        {
          "attributes": {
            "NORMAL": 25,
            "POSITION": 24,
            "TEXCOORD_0": 26
          },
          "indices": 27,
          "material": 0,
          "mode": 4
        }
      ]
    },
    {
      "primitives": [
        {
          "attributes": {
            "NORMAL": 29,
            "POSITION": 28,
            "TEXCOORD_0": 30
          },
          "indices": 31,
          "material": 0,
          "mode": 4
        }
      ]
    },
    {
      "primitives": [
        {
          "attributes": {
            "NORMAL": 33,
            "POSITION": 32,
            "TEXCOORD_0": 34
          },
          "indices": 35,
          "material": 0,
          "mode": 4
        }
      ]
    },
    {
      "primitives": [
        {
          "attributes": {
            "NORMAL": 37,
            "POSITION": 36,
            "TEXCOORD_0": 38
          },
          "indices": 39,
          "material": 0,
          "mode": 4
        }
      ]
    }
  ],
  "nodes": [
    {
      "children": [
        1
      ],
      "name": "RootNode (gltf orientation matrix)",
      "rotation": [
        -0.70710678118654746,
        -0,
        -0,
        0.70710678118654757
      ]
    },
    {
      "children": [
        2
      ],
      "name": "RootNode (model correction matrix)"
    },
    {
      "children": [
        3,
        4,
        5,
        6,
        7,
        8,
        9,
        10,
        11,
        12
      ],
      "name": "Alienfetusprint.obj.cleaner.materialmerger.gles"
    },
    {
      "mesh": 0,
      "name": ""
    },
    {
      "mesh": 1,
      "name": ""
    },
    {
      "mesh": 2,
      "name": ""
    },
    {
      "mesh": 3,
      "name": ""
    },
    {
      "mesh": 4,
      "name": ""
    },
    {
      "mesh": 5,
      "name": ""
    },
    {
      "mesh": 6,
      "name": ""
    },
    {
      "mesh": 7,
      "name": ""
    },
    {
      "mesh": 8,
      "name": ""
    },
    {
      "mesh": 9,
      "name": ""
    }
  ],
  "samplers": [
    {
      "magFilter": 9729,
      "minFilter": 9987,
      "wrapS": 10497,
      "wrapT": 10497
    }
  ],
  "scene": 0,
  "scenes": [
    {
      "name": "OSG_Scene",
      "nodes": [
        0
      ]
    }
  ],
  "textures": [
    {
      "sampler": 0,
      "source": 0
    }
  ]
}

