{
  "accessors": [
    {
      "bufferView": 1,
      "componentType": 5126,
      "count": 13171,
      "max": [
        1.463379979133606,
        3.974329948425293,
        0.59473001956939697
      ],
      "min": [
        -1.463379979133606,
        -4.0106201171875,
        -0.55247002840042114
      ],
      "type": "VEC3"
    },
    {
      "bufferView": 1,
      "byteOffset": 158052,
      "componentType": 5126,
      "count": 13171,
      "max": [
        0.99986904859542847,
        0.99999481439590454,
        0.99989765882492065
      ],
      "min": [
        -0.99999493360519409,
        -0.99996787309646606,
        -0.99984145164489746
      ],
      "type": "VEC3"
    },
    {
      "bufferView": 0,
      "componentType": 5125,
      "count": 77193,
      "max": [
        13170
      ],
      "min": [
        0
      ],
      "type": "SCALAR"
    }
  ],
  "asset": {
    "extras": {
      "author": "Samura IT BD (https://sketchfab.com/samura2021)",
      "license": "CC-BY-4.0 (http://creativecommons.org/licenses/by/4.0/)",
      "source": "https://sketchfab.com/3d-models/skeleton-32dfb183d03641a1947af57217f5de23",
      "title": "Skeleton"
    },
    "generator": "Sketchfab-6.46.0",
    "version": "2.0"
  },
  "bufferViews": [
    {
      "buffer": 0,
      "byteLength": 308772,
      "byteOffset": 0,
      "name": "floatBufferViews",
      "target": 34963
    },
    {
      "buffer": 0,
      "byteLength": 316104,
      "byteOffset": 308772,
      "byteStride": 12,
      "name": "floatBufferViews",
      "target": 34962
    }
  ],
  "buffers": [
    {
      "byteLength": 624876,
      "uri": "scene.bin"
    }
  ],
  "extensionsRequired": [
    "KHR_materials_pbrSpecularGlossiness"
  ],
  "extensionsUsed": [
    "KHR_materials_pbrSpecularGlossiness"
  ],
  "materials": [
    {
      "doubleSided": true,
      "extensions": {
        "KHR_materials_pbrSpecularGlossiness": {
          "diffuseFactor": [
            0.7061845311578715,
            0.7061845311578715,
            0.7061845311578715,
            1
          ],
          "glossinessFactor": 0.55238097906112671,
          "specularFactor": [
            0.7061845311578715,
            0.7061845311578715,
            0.7061845311578715
          ]
        }
      },
      "name": "Material.001"
    }
  ],
  "meshes": [
    {
      "name": "Group51766_0",
      "primitives": [
        {
          "attributes": {
            "NORMAL": 1,
            "POSITION": 0
          },
          "indices": 2,
          "material": 0,
          "mode": 4
        }
      ]
    }
  ],
  "nodes": [
    {
      "children": [
        1
      ],
      "name": "RootNode (gltf orientation matrix)",
      "rotation": [
        -0.70710678118654746,
        -0,
        -0,
        0.70710678118654757
      ]
    },
    {
      "children": [
        2
      ],
      "name": "RootNode (model correction matrix)"
    },
    {
      "children": [
        3,
        5
      ],
      "name": "Root"
    },
    {
      "children": [
        4
      ],
      "matrix": [
        0.98968,
        -0.079670000000000019,
        -0.11909000000000003,
        0,
        0.13852,
        0.3194800000000001,
        0.93742000000000003,
        0,
        -0.036640000000000006,
        -0.94424000000000008,
        0.32722000000000007,
        0,
        -0.13555,
        -5.0341199999999997,
        4.0133600000000005,
        1
      ],
      "name": "Lamp"
    },
    {
      "name": "Lamp"
    },
    {
      "children": [
        6
      ],
      "matrix": [
        0.42101000000000005,
        0,
        0,
        0,
        0,
        -0,
        0.42101000000000005,
        0,
        0,
        -0.42101000000000005,
        -0,
        0,
        0,
        0,
        1.6505800000000002,
        1
      ],
      "name": "Group51766"
    },
    {
      "mesh": 0,
      "name": "Group51766_0"
    }
  ],
  "scene": 0,
  "scenes": [
    {
      "name": "OSG_Scene",
      "nodes": [
        0
      ]
    }
  ]
}

